# xmcd
#
# Track frame offsets:
# 150
# 11161
# 21754
# 37192
# 49073
# 58340
# 88955
# 98725
# 107409
# 117887
# 130279
# 170683
#
# Disc length: 2370 seconds
#
#
# Revision: 0
# Processed by: cddbd v1.5.2PL0 Copyright (c) Steve Scherf et al.
# Submitted via: FreeRIP 2.90 
#
DISCID=a509400c
DTITLE=Fats Domino - fats domino
DYEAR=1900
DGENRE=R&B
TTITLE0=Blueberry Hill
TTITLE1=Ain't That a Shame
TTITLE2=I'm In Love Again
TTITLE3=I Want to Walk With You
TTITLE4=My Blue Heaven
TTITLE5=Let the Four Winds Blow
TTITLE6=I'm Walking to New Orleans
TTITLE7=My Girl Josephine
TTITLE8=I'm Gonna Be a Wheel Someday
TTITLE9=When My Dreamboat Comes home
TTITLE10=Jambalaya (On the Bayou)
TTITLE11=When the Saints Go Marching In
EXTD=
EXTT0=
EXTT1=
EXTT2=
EXTT3=
EXTT4=
EXTT5=
EXTT6=
EXTT7=
EXTT8=
EXTT9=
EXTT10=
EXTT11=
PLAYORDER=
